HIERARCHY
ROOT Hips
{
	OFFSET 0.000000 0.000000 0.000000 
	CHANNELS 6 Xposition Yposition Zposition Zrotation Yrotation Xrotation
	JOINT LeftUpLeg
	{
		OFFSET 1.363060 -1.794630 0.839290 
		CHANNELS 3 Zrotation Yrotation Xrotation
		JOINT LeftLeg
		{
			OFFSET 2.448110 -6.726130 0.000000 
			CHANNELS 3 Zrotation Yrotation Xrotation
			JOINT LeftFoot
			{
				OFFSET 2.562200 -7.039590 0.000000 
				CHANNELS 3 Zrotation Yrotation Xrotation
				JOINT LeftToeBase
				{
					OFFSET 0.157640 -0.433110 2.322550 
					CHANNELS 3 Zrotation Yrotation Xrotation
					End Site
					{
						OFFSET 0.000000 0.000000 0.000000 
					}
				}
			}
		}
	}
	JOINT RightUpLeg
	{
		OFFSET -1.305520 -1.794630 0.839290 
		CHANNELS 3 Zrotation Yrotation Xrotation
		JOINT RightLeg
		{
			OFFSET -2.542530 -6.985550 0.000000 
			CHANNELS 3 Zrotation Yrotation Xrotation
			JOINT RightFoot
			{
				OFFSET -2.568260 -7.056230 0.000000 
				CHANNELS 3 Zrotation Yrotation Xrotation
				JOINT RightToeBase
				{
					OFFSET -0.164730 -0.452590 2.363150 
					CHANNELS 3 Zrotation Yrotation Xrotation
					End Site
					{
						OFFSET 0.000000 0.000000 0.000000 
					}
				}
			}
		}
	}
	JOINT Spine
	{
		OFFSET 0.028270 2.035590 -0.193380 
		CHANNELS 3 Zrotation Yrotation Xrotation
		JOINT Spine1
		{
			OFFSET 0.056720 2.048850 -0.042750 
			CHANNELS 3 Zrotation Yrotation Xrotation
			JOINT Neck1
			{
				OFFSET -0.054170 1.746240 0.172020 
				CHANNELS 3 Zrotation Yrotation Xrotation
				JOINT Head
				{
					OFFSET 0.104070 1.761360 -0.123970 
					CHANNELS 3 Zrotation Yrotation Xrotation
					End Site
					{
						OFFSET 0.000000 0.000000 0.000000 
					}
				}
			}
			JOINT LeftArm
			{
				OFFSET 3.362410 1.200890 -0.311210 
				CHANNELS 3 Zrotation Yrotation Xrotation
				JOINT LeftForeArm
				{
					OFFSET 4.983000 -0.000000 -0.000000 
					CHANNELS 3 Zrotation Yrotation Xrotation
					JOINT LeftHand
					{
						OFFSET 3.483560 -0.000000 -0.000000 
						CHANNELS 3 Zrotation Yrotation Xrotation
						JOINT LeftHandIndex1
						{
							OFFSET 0.715260 -0.000000 -0.000000 
							CHANNELS 3 Zrotation Yrotation Xrotation
							End Site
							{
								OFFSET 0.000000 0.000000 0.000000 
							}
						}
					}
				}
			}
			JOINT RightArm
			{
				OFFSET -3.136600 1.374050 -0.404650 
				CHANNELS 3 Zrotation Yrotation Xrotation
				JOINT RightForeArm
				{
					OFFSET -5.241900 -0.000000 -0.000000 
					CHANNELS 3 Zrotation Yrotation Xrotation
					JOINT RightHand
					{
						OFFSET -3.444170 -0.000000 -0.000000 
						CHANNELS 3 Zrotation Yrotation Xrotation
						JOINT RightHandIndex1
						{
							OFFSET -0.622530 -0.000000 -0.000000 
							CHANNELS 3 Zrotation Yrotation Xrotation
							End Site
							{
								OFFSET 0.000000 0.000000 0.000000 
							}
						}
					}
				}
			}
		}
	}
}
MOTION
Frames: 16
Frame Time: 0.041667
0.817061 18.406680 9.772397 -9.717078 4.323409 12.075366 -19.573902 -43.214189 18.547855 -3.647254 -2.237319 -3.318422 -14.597022 43.485800 -22.486831 0.073100 1.744500 4.800000 23.932421 25.149123 2.073753 3.674197 -0.940392 3.675618 8.892741 -27.345488 -6.307308 -0.076900 -1.788600 4.921800 19.106336 8.467998 -26.490960 -8.964498 0.030236 -6.317155 26.055465 -14.424895 30.848343 5.883500 -4.168200 9.138100 -80.095084 -40.890734 58.691634 156.467597 -27.052653 -114.601487 0.132374 -1.818592 -28.445387 -7.125000 0.000000 0.000000 75.069608 8.096991 44.596986 -50.565519 47.618469 -27.838600 0.348925 0.955800 35.568200 7.125000 0.000000 0.000000 
0.820958 18.407944 9.772186 -9.699467 4.316850 12.176646 -19.766909 -43.525271 18.764524 -3.651967 -2.252698 -3.362363 -14.697774 43.717915 -22.828033 0.080200 1.827200 5.028400 23.863129 25.344808 2.105354 3.683916 -0.909400 3.579032 8.921948 -27.420310 -6.455141 -0.092800 -1.965000 5.409000 19.287884 8.465150 -26.598647 -8.870538 -0.026161 -6.451626 25.017007 -14.122725 30.753727 5.529700 -4.087400 9.128400 -80.526644 -41.028143 59.131560 156.487124 -27.064530 -114.604217 0.093241 -1.814203 -28.128477 -7.125000 0.000000 0.000000 75.246025 8.110368 44.744544 -50.416359 47.576753 -27.710849 0.355170 0.946718 35.714200 7.125000 0.000000 0.000000 
0.822328 18.409103 9.768605 -9.856500 4.324369 12.137405 -19.769298 -43.813053 18.927326 -3.657896 -2.289703 -3.416057 -14.805717 43.927505 -23.120290 0.081600 1.842400 5.070400 23.917434 25.614304 2.170601 3.689680 -0.889792 3.529518 8.972393 -27.551102 -6.631331 -0.099900 -2.038100 5.610900 20.513172 8.424746 -25.520202 -9.018163 -0.181991 -6.734248 24.924741 -14.046356 30.932896 5.533300 -4.026500 9.344900 -80.778630 -41.471820 59.344760 156.517673 -27.035452 -114.615762 0.068626 -1.813256 -27.928739 -7.125000 0.000000 0.000000 75.445045 8.238541 44.712304 -50.486415 47.621878 -27.764688 0.345347 0.937113 36.238863 7.125000 0.000000 0.000000 
0.822433 18.410472 9.761969 -10.214090 4.333470 11.920072 -19.605336 -44.030754 19.011194 -3.666516 -2.355094 -3.469788 -14.898464 44.061536 -23.308454 0.083100 1.859400 5.117200 24.010819 25.851944 2.203066 3.688695 -0.874686 3.515678 9.021559 -27.668357 -6.726431 -0.098300 -2.022100 5.566700 23.316410 8.279922 -22.722257 -9.425749 -0.441895 -6.933916 24.983074 -13.694759 30.182892 5.551600 -3.888400 9.290700 -80.846305 -42.523357 59.256833 156.527228 -26.971469 -114.627102 0.062384 -1.824059 -27.771427 -7.125000 0.000000 0.000000 75.869279 8.487107 44.144948 -51.094762 47.876092 -28.262126 0.300624 0.920997 37.573114 7.125000 0.000000 0.000000 
0.823802 18.411526 9.759125 -10.171686 4.325470 12.158982 -19.516631 -44.224416 18.967372 -3.662740 -2.344650 -3.511625 -14.956288 44.208171 -23.533786 0.090100 1.935500 5.327400 24.059243 26.080306 2.191820 3.695685 -0.866587 3.449237 9.070866 -27.829227 -6.814837 -0.101600 -2.055200 5.658300 22.354996 8.354233 -24.033596 -9.314849 -0.402295 -6.960511 25.660979 -13.518610 29.380763 5.733000 -3.801000 9.109900 -81.207498 -42.333563 59.927683 156.610416 -26.880956 -114.679190 0.063028 -1.808734 -27.564025 -7.125000 0.000000 0.000000 75.479917 8.815827 45.214805 -50.002840 47.436768 -27.333704 0.360383 0.921284 36.522535 7.125000 0.000000 0.000000 
0.826857 18.411631 9.759546 -10.054709 4.270905 12.328325 -19.605984 -44.409352 19.051065 -3.665952 -2.339933 -3.537857 -14.946629 44.261671 -23.930206 0.105400 2.093900 5.765200 24.038732 26.254354 2.227974 3.702307 -0.852870 3.389486 9.114993 -27.957311 -6.889582 -0.102100 -2.060600 5.673300 21.376033 8.327409 -24.955134 -9.143475 -0.367713 -7.111717 25.929462 -13.700952 29.306883 5.796300 -3.864500 9.207900 -81.669251 -42.125057 60.769789 156.728732 -26.795891 -114.735645 0.074390 -1.794136 -27.271918 -7.125000 0.000000 0.000000 75.518885 8.723235 45.573776 -49.523382 47.250997 -26.935776 0.380744 0.926491 36.085207 7.125000 0.000000 0.000000 
0.830333 18.410999 9.759546 -10.232614 4.201479 12.173756 -19.703653 -44.623331 19.322415 -3.682293 -2.399238 -3.588365 -14.927936 44.272049 -24.438556 0.129500 2.319800 6.390200 24.047454 26.353992 2.270347 3.701451 -0.835525 3.374613 9.118373 -27.945284 -6.923925 -0.105300 -2.092900 5.762400 23.028513 8.206920 -23.053550 -9.387760 -0.509096 -7.211689 25.772519 -13.554658 29.015349 5.735700 -3.810700 9.242200 -81.962099 -42.819035 61.229369 156.702853 -26.822453 -114.724091 0.064479 -1.798894 -26.824578 -7.125000 0.000000 0.000000 75.323871 9.378561 45.913118 -49.279458 47.154148 -26.721616 0.396581 0.927234 35.925053 7.125000 0.000000 0.000000 
0.832966 18.410262 9.760705 -9.981780 4.112769 12.573111 -19.829798 -44.918910 19.475468 -3.679529 -2.384952 -3.690970 -14.973830 44.477307 -24.934253 0.147000 2.470500 6.807900 24.046270 26.557433 2.252788 3.710320 -0.831797 3.310195 9.126507 -27.997875 -7.020952 -0.118100 -2.215600 6.101800 20.255784 8.308555 -25.975930 -9.012126 -0.316952 -7.224651 25.805744 -13.812535 28.874410 5.729800 -3.963600 9.220700 -82.523010 -42.031741 62.395637 156.619107 -26.988156 -114.679203 0.006140 -1.779658 -26.440650 -7.125000 0.000000 0.000000 75.915485 8.367999 45.625458 -49.162270 47.112611 -26.636626 0.387695 0.932438 36.035329 7.125000 0.000000 0.000000 
0.835705 18.410156 9.761969 -9.807153 4.027897 12.747913 -20.024601 -45.119417 19.629620 -3.683823 -2.377915 -3.716589 -14.954969 44.536538 -25.371803 0.164100 2.610100 7.194900 23.961457 26.716021 2.284912 3.717705 -0.809301 3.228450 9.151366 -28.068187 -7.069112 -0.124900 -2.278600 6.276400 19.080211 8.244922 -27.078038 -8.825124 -0.258974 -7.286110 25.799129 -13.885505 28.599203 5.725800 -4.035900 9.175500 -82.918646 -41.763075 63.152540 156.524014 -27.144878 -114.620466 -0.039600 -1.773395 -26.265422 -7.125000 0.000000 0.000000 76.213875 7.982301 45.603974 -48.946297 47.026431 -26.456410 0.388410 0.932017 36.119451 7.125000 0.000000 0.000000 
0.838654 18.410051 9.763549 -9.730212 3.958985 12.812886 -20.141764 -45.168761 19.695565 -3.688848 -2.377433 -3.716832 -14.922467 44.526405 -25.604348 0.176800 2.708100 7.467200 23.881613 26.709456 2.278316 3.720270 -0.791311 3.171345 9.142450 -28.044622 -7.013596 -0.122000 -2.251600 6.201600 18.808735 8.195493 -27.411423 -8.762185 -0.271982 -7.321865 25.362706 -13.764492 28.310586 5.598800 -4.047500 9.087800 -83.222197 -41.695666 63.636925 156.474634 -27.230284 -114.588549 -0.047796 -1.773032 -26.139627 -7.125000 0.000000 0.000000 76.377557 7.902262 45.716777 -48.660816 46.908426 -26.212797 0.396684 0.931314 36.202207 7.125000 0.000000 0.000000 
0.840129 18.409735 9.766393 -9.720901 3.879303 12.844386 -20.151674 -45.114610 19.700859 -3.690342 -2.390306 -3.750948 -14.951194 44.580861 -25.613514 0.174800 2.693000 7.425100 23.874628 26.726074 2.299049 3.720502 -0.779546 3.127270 9.147948 -28.070991 -6.915656 -0.111100 -2.149000 5.917600 18.778932 8.188374 -27.593643 -8.755748 -0.295044 -7.357824 24.724732 -13.624544 28.084189 5.424500 -4.063800 9.015900 -83.495817 -41.631756 63.984418 156.432234 -27.300425 -114.562263 -0.062539 -1.770634 -25.898055 -7.125000 0.000000 0.000000 76.488127 7.837136 45.822797 -48.382670 46.793317 -25.974008 0.403725 0.928716 36.298646 7.125000 0.000000 0.000000 
0.841920 18.409630 9.771238 -9.618794 3.756771 12.881024 -20.294919 -45.064236 19.735639 -3.694895 -2.390893 -3.742063 -14.930495 44.569829 -25.715955 0.180700 2.738300 7.551100 23.768292 26.837842 2.361974 3.723579 -0.756856 3.058515 9.181008 -28.154818 -6.869991 -0.107700 -2.116500 5.827800 18.670781 8.132758 -27.661233 -8.693778 -0.312441 -7.376726 24.263664 -13.548435 28.216760 5.309300 -4.059300 9.057400 -83.675406 -41.602910 64.228776 156.414704 -27.349974 -114.539642 -0.095901 -1.767982 -25.551880 -7.125000 0.000000 0.000000 76.557789 7.818089 45.911019 -48.106674 46.676828 -25.738008 0.410129 0.922840 36.351007 7.125000 0.000000 0.000000 
0.845922 18.408682 9.778822 -9.381900 3.597558 12.957521 -20.776623 -45.216046 20.019796 -3.706926 -2.383366 -3.707250 -14.913223 44.640077 -26.191313 0.202200 2.895600 7.988200 23.502800 26.913888 2.398045 3.728697 -0.725543 2.972342 9.187891 -28.145670 -6.843191 -0.112700 -2.164700 5.961000 18.338258 8.025205 -27.854060 -8.561587 -0.315102 -7.292566 23.903978 -13.481868 28.184057 5.218200 -4.072200 9.034200 -83.960450 -41.530975 64.682292 156.360637 -27.445581 -114.507418 -0.130689 -1.760978 -24.842178 -7.125000 0.000000 0.000000 76.611262 7.839847 46.053807 -47.776269 46.529133 -25.457184 0.421370 0.920371 36.350053 7.125000 0.000000 0.000000 
0.850241 18.408050 9.786090 -9.223805 3.482814 13.018101 -21.153147 -45.386596 20.301613 -3.717595 -2.383054 -3.697544 -14.906589 44.726260 -26.662308 0.217000 2.998900 8.275600 23.341424 26.960284 2.432697 3.731728 -0.705091 2.914906 9.184239 -28.120638 -6.813302 -0.114100 -2.177600 5.996800 18.033723 7.936114 -28.095776 -8.492073 -0.325683 -7.228722 23.701435 -13.466877 28.206075 5.177700 -4.092300 9.037900 -84.198948 -41.308457 65.090345 156.343494 -27.500320 -114.490544 -0.159462 -1.752848 -24.111310 -7.125000 0.000000 0.000000 76.615116 7.896011 46.272858 -47.338676 46.328812 -25.088410 0.440276 0.923533 36.248288 7.125000 0.000000 0.000000 
0.853085 18.407839 9.792621 -9.234881 3.408229 13.037543 -21.194371 -45.410642 20.409037 -3.723291 -2.387908 -3.711735 -14.878706 44.725474 -26.899233 0.225200 3.054500 8.430400 23.401045 27.034802 2.515201 3.733644 -0.695492 2.891903 9.180091 -28.116648 -6.838843 -0.119900 -2.232800 6.149300 17.807460 7.892494 -28.321649 -8.508867 -0.336735 -7.210771 23.319400 -13.412409 28.314868 5.075000 -4.092700 9.048300 -83.960214 -41.038076 64.893082 156.470952 -27.375568 -114.527079 -0.172107 -1.753916 -24.057478 -7.125000 0.000000 0.000000 76.899251 7.842889 46.091043 -47.178942 46.248306 -24.950451 0.443217 0.919564 36.481344 7.125000 0.000000 0.000000 
0.854454 18.406575 9.800521 -9.311540 3.286123 13.043490 -21.168099 -45.354565 20.504289 -3.729115 -2.406416 -3.753887 -14.889144 44.772835 -27.062231 0.230300 3.088900 8.526500 23.520627 27.102802 2.597749 3.733206 -0.689807 2.880288 9.157612 -28.071245 -6.823416 -0.124100 -2.270800 6.254500 17.775207 7.905470 -28.442996 -8.573924 -0.345469 -7.180863 22.952069 -13.356764 28.517650 4.985000 -4.084200 9.085400 -83.665111 -40.864468 64.591575 156.577474 -27.249536 -114.564473 -0.164476 -1.758941 -24.298896 -7.125000 0.000000 0.000000 77.100007 7.857109 46.026518 -46.911114 46.117749 -24.719833 0.450268 0.908086 36.624521 7.125000 0.000000 0.000000 
